<?xml version="1.0" encoding="utf-8"?>
<!-- Generator: Adobe Illustrator 25.1.0, SVG Export Plug-In . SVG Version: 6.00 Build 0)  -->
<svg version="1.1" id="Layer_1" xmlns="http://www.w3.org/2000/svg" xmlns:xlink="http://www.w3.org/1999/xlink" x="0px" y="0px"
	 viewBox="0 0 328 198" style="enable-background:new 0 0 328 198;" xml:space="preserve">
<style type="text/css">
	.st0{fill:#EEEEEE;}
	.st1{fill:url(#SVGID_1_);}
	.st2{fill:#78A9EF;}
	.st3{fill:#89B3F4;}
	.st4{fill:#F7F7F7;}
	.st5{fill:#23286B;}
</style>
<rect class="st0" width="328" height="198"/>
<linearGradient id="SVGID_1_" gradientUnits="userSpaceOnUse" x1="2.804" y1="182.021" x2="323.629" y2="182.021" gradientTransform="matrix(1 0 0 -1 0 200)">
	<stop  offset="0" style="stop-color:#B0CDFC"/>
	<stop  offset="1" style="stop-color:#81AEF2"/>
</linearGradient>
<path class="st1" d="M323.6,34.5H2.8V14.3c0-7.1,5.7-12.8,12.8-12.8h308V34.5z"/>
<path class="st2" d="M40.6,38.1H5.7V17.8c0-7,5.7-12.7,12.7-12.7h22.2V38.1z"/>
<rect x="14.2" y="12.6" class="st3" width="18" height="18"/>
<path class="st4" d="M296,45.3H63.3c-3.3,0-6-2.7-6-6v-2.7c0-3.3,2.7-6,6-6H296c3.3,0,6,2.7,6,6v2.7C302,42.6,299.3,45.3,296,45.3z"
	/>
<circle class="st5" cx="74.5" cy="41.2" r="1.5"/>
<circle class="st5" cx="82.5" cy="41.2" r="1.5"/>
<circle class="st5" cx="90.5" cy="41.2" r="1.5"/>
</svg>
