<svg xmlns="http://www.w3.org/2000/svg" viewBox="0 0 236.19 421.52"><defs><style>.cls-1,.cls-3,.cls-5,.cls-7{fill:none;stroke-miterlimit:10;}.cls-1,.cls-3,.cls-7{stroke:#f4f4f4;}.cls-1{stroke-width:4px;}.cls-2{fill:#f4f4f4;}.cls-3{stroke-width:7px;}.cls-4{fill:#6e67e3;}.cls-5{stroke:#eae8e8;stroke-width:3px;}.cls-6{fill:#fcc;}.cls-7{stroke-width:6px;}</style></defs><g id="Purple_Background" data-name="Purple Background"><path class="cls-1" d="M77.17,225a52.14,52.14,0,0,0-17.42,5.81,49.67,49.67,0,0,0-11.61,8.71,47.87,47.87,0,0,0-6.78,8.71" transform="translate(-3.17 -2.05)"/><path class="cls-2" d="M120.72,244.33c-.84-.38-1.54.84-3.87,1.93-3.7,1.74-5.7.43-6.78,1.94s-.17,3.6,1,6.77c.88,2.45,1.43,2.6,1.94,4.84.34,1.56.27,2.34,1,2.9.93.75,2.36.39,3.87,0,1.78-.44,3.15-.79,3.88-1.93s.2-1.79,0-4.84c-.16-2.35.09-2.06,0-5.81C121.55,244.94,121.06,244.48,120.72,244.33Z" transform="translate(-3.17 -2.05)"/><path class="cls-2" d="M98.94,163.52c15.52-10.43,22.21,28.18,4.84,35.8-3.07,2.54-9-.67-10.64-2.9C84.82,187.05,87.82,169.45,98.94,163.52Z" transform="translate(-3.17 -2.05)"/><path class="cls-3" d="M184.11,166.42c19.35-30.39,25.39-61.08,26.13-98.71C209,51.89,209.39,34,200.56,17.39c-3.2-4-9.53-13.42-16.45-11.62-14.28,1.09-22.9,21.44-29,31.94-12.18,28.73-19.45,77.41-12.58,109.36" transform="translate(-3.17 -2.05)"/><path class="cls-4" d="M98.94,178c-5-2.65-2.81-9.32,2.91-9.67C109.42,168.66,104.71,182.53,98.94,178Z" transform="translate(-3.17 -2.05)"/><path class="cls-2" d="M54.17,354.36a28.22,28.22,0,0,1,12.58,2.57,24.63,24.63,0,0,1,8.44,6.66,26.38,26.38,0,0,1,4.73,9.1,35.6,35.6,0,0,1,1.47,10,27.94,27.94,0,0,1-1.58,9.6,22.27,22.27,0,0,1-4.44,7.52,20.32,20.32,0,0,1-6.77,4.9A20.77,20.77,0,0,1,60,406.42a18.32,18.32,0,0,1-2.47-.17c-.88-.12-1.77-.29-2.65-.5s-1.74-.46-2.57-.72a17.87,17.87,0,0,1-2.19-.82,21.54,21.54,0,0,1-5.16,1.58,26.09,26.09,0,0,1-4.23.42,7.8,7.8,0,0,1-5.15-1.61,6,6,0,0,1-1.94-4.84,5.6,5.6,0,0,1,1.72-4.19,5.78,5.78,0,0,1,4.23-1.69,11.85,11.85,0,0,1,2.22.18,12.41,12.41,0,0,1,1.75.46,11.37,11.37,0,0,1,1.54.68l1.5.82a31.59,31.59,0,0,0,2-4.4q1-2.76,2-6.27c.62-2.34,1.16-4.84,1.61-7.48a80.25,80.25,0,0,0,1-8,9.73,9.73,0,0,0-2.44.32c-.81.21-1.63.46-2.47.72s-1.69.5-2.58.71a11.34,11.34,0,0,1-2.76.32,6.1,6.1,0,0,1-6.31-6.08,9.6,9.6,0,0,1,1.29-5,10.54,10.54,0,0,1,3.62-3.62A18.36,18.36,0,0,1,47,355.09,33.26,33.26,0,0,1,54.17,354.36ZM57.89,370q-1,9.38-2.22,17.08a66.61,66.61,0,0,1-3,12.5,13.34,13.34,0,0,0,2.79,1.12,12.3,12.3,0,0,0,3.22.39,7.84,7.84,0,0,0,4.23-1.14,9.9,9.9,0,0,0,3.16-3.18,16.89,16.89,0,0,0,2-4.73,22.44,22.44,0,0,0,.72-5.83,27.65,27.65,0,0,0-.57-5.52,17,17,0,0,0-1.86-4.94A12.64,12.64,0,0,0,63,372,11.07,11.07,0,0,0,57.89,370Z" transform="translate(-3.17 -2.05)"/><path class="cls-2" d="M91.92,394.83a6.11,6.11,0,0,0,2,4.87,8.72,8.72,0,0,0,5.91,1.79,12.08,12.08,0,0,0,4.95-1,22.39,22.39,0,0,0,4-2.21,31.72,31.72,0,0,0,2.83-2.22c.74-.67,1.25-1,1.54-1,.62,0,.93.25.93.72a5.65,5.65,0,0,1-1.29,2.4,20.53,20.53,0,0,1-3.51,3.58A24.7,24.7,0,0,1,104,405a15.32,15.32,0,0,1-6.59,1.43,16.45,16.45,0,0,1-6.23-1.07,12.51,12.51,0,0,1-4.4-2.9,11.68,11.68,0,0,1-2.61-4.26,15.23,15.23,0,0,1-.87-5.16,20.48,20.48,0,0,1,1.08-6.48,19,19,0,0,1,3.11-5.88,17.09,17.09,0,0,1,4.87-4.26,12.61,12.61,0,0,1,6.41-1.64,7.4,7.4,0,0,1,3.54.82,7.75,7.75,0,0,1,2.55,2.15,9.44,9.44,0,0,1,1.5,3,12.17,12.17,0,0,1,.5,3.33,16.38,16.38,0,0,1-2.93,9.45,11.34,11.34,0,0,1-2.83,2.83,5.17,5.17,0,0,1-2.9,1,9.56,9.56,0,0,1-4.09-.79A4.91,4.91,0,0,1,91.92,394.83Zm5-10.82a2.62,2.62,0,0,0-1.72.76,7.85,7.85,0,0,0-1.58,2,11.7,11.7,0,0,0-1.14,2.72,11.4,11.4,0,0,0-.43,3.08,8.05,8.05,0,0,0,2.19-1,10.6,10.6,0,0,0,2-1.64,7.77,7.77,0,0,0,1.44-2.05,5.06,5.06,0,0,0,.53-2.18Q98.22,384,96.93,384Z" transform="translate(-3.17 -2.05)"/><path class="cls-2" d="M119.28,375.42a15,15,0,0,1,4.51-2.36,14.84,14.84,0,0,1,4.29-.65,4.91,4.91,0,0,1,2.11.39,3.94,3.94,0,0,1,1.33,1,3.44,3.44,0,0,1,.68,1.33,6,6,0,0,1,.17,1.36,3.65,3.65,0,0,1-.72,2.11,15.38,15.38,0,0,1-1.75,2.11c-.7.72-1.46,1.43-2.29,2.15a30.2,30.2,0,0,0-2.3,2.19,15.23,15.23,0,0,0-1.75,2.25,4.38,4.38,0,0,0-.71,2.3,4.46,4.46,0,0,0,.82,2.61,13.23,13.23,0,0,0,1.93,2.19,21.57,21.57,0,0,0,2.34,1.82c.81.56,1.48,1,2,1.48.67-.29,1.39-.58,2.19-.87s1.55-.55,2.29-.78,1.39-.44,2-.61a5.41,5.41,0,0,1,1.21-.25c.53,0,.79.24.79.71,0,.15-.26.39-.79.72s-1.16.7-1.89,1.08-1.5.8-2.3,1.24l-2,1.18a6.29,6.29,0,0,1,.11.72c0,.24,0,.47,0,.72a10.81,10.81,0,0,1-1.26,5,17.17,17.17,0,0,1-7.59,7.52,10.58,10.58,0,0,1-4.62,1.18c-2.86,0-4.86-.58-6-1.75a5.48,5.48,0,0,1-1.72-3.9c0-1.63.92-3.29,2.76-5s4.66-3.11,8.49-4.16c-1.14-.61-2.34-1.27-3.58-2a18,18,0,0,1-3.37-2.4,11.88,11.88,0,0,1-2.51-3.22,9.21,9.21,0,0,1-1-4.44,12.57,12.57,0,0,1,2.21-6.88A23,23,0,0,1,119.28,375.42Zm.07,34.66a7.36,7.36,0,0,0,2.15-.36,8.61,8.61,0,0,0,2.22-1,6.46,6.46,0,0,0,1.72-1.62,3.73,3.73,0,0,0,.72-2.25,3.58,3.58,0,0,0-1.94-3.08,17.78,17.78,0,0,0-5.91,3.12,4.16,4.16,0,0,0-1.62,2.75,2.18,2.18,0,0,0,.76,1.83A2.91,2.91,0,0,0,119.35,410.08Z" transform="translate(-3.17 -2.05)"/><path class="cls-2" d="M144.35,375.56a6.07,6.07,0,0,1,3.51,1.08,3.36,3.36,0,0,1,1.58,2.93,19.31,19.31,0,0,1-.46,4c-.31,1.46-.66,2.94-1,4.44s-.73,3-1,4.4a18.47,18.47,0,0,0-.47,3.87,4.64,4.64,0,0,0,1,3.26,3.38,3.38,0,0,0,2.61,1,7.42,7.42,0,0,0,3.16-.82,12.69,12.69,0,0,0,3.36-2.47,13.18,13.18,0,0,0,1.48-1.68,1.25,1.25,0,0,1,1-.68.73.73,0,0,1,.57.25.77.77,0,0,1,.21.54,3,3,0,0,1-.78,1.72c-.81,1.06-1.65,2.1-2.54,3.12a24.91,24.91,0,0,1-2.83,2.8,13.87,13.87,0,0,1-3.3,2,9.76,9.76,0,0,1-3.94.78,10.1,10.1,0,0,1-4.33-.86,8.22,8.22,0,0,1-3-2.33,10.11,10.11,0,0,1-1.79-3.47,14.91,14.91,0,0,1-.61-4.38c0-1.91.05-3.88.18-5.91a64.9,64.9,0,0,1,.75-6.55,16.84,16.84,0,0,1,.68-2.34A9,9,0,0,1,139.6,378a7,7,0,0,1,2-1.75A5.42,5.42,0,0,1,144.35,375.56ZM140.48,364a5.3,5.3,0,0,1,.68-2.61,7.62,7.62,0,0,1,1.79-2.22,8.46,8.46,0,0,1,2.54-1.54,7.92,7.92,0,0,1,2.94-.57,7.32,7.32,0,0,1,4.34,1.29,4.56,4.56,0,0,1,1.83,4,5.83,5.83,0,0,1-.68,2.83,6.68,6.68,0,0,1-1.86,2.15,8.37,8.37,0,0,1-2.72,1.36,11.4,11.4,0,0,1-3.33.47,5.17,5.17,0,0,1-4-1.62A5.11,5.11,0,0,1,140.48,364Z" transform="translate(-3.17 -2.05)"/><path class="cls-2" d="M177.37,398.84a20.26,20.26,0,0,1-4.65,3.37,12.27,12.27,0,0,1-5.88,1.5,9.53,9.53,0,0,1-4.15-.89,10.29,10.29,0,0,1-3.22-2.44,10.73,10.73,0,0,1-2.08-3.58,13,13,0,0,1-.72-4.34,26.41,26.41,0,0,1,.86-6.41,22.22,22.22,0,0,1,2.59-6.23,15.92,15.92,0,0,1,4.33-4.72,10.11,10.11,0,0,1,6.13-1.9,7.63,7.63,0,0,1,3.22.65,9.43,9.43,0,0,1,2.47,1.58,11.7,11.7,0,0,1,1.72,1.93,10,10,0,0,1,1,1.73,7.65,7.65,0,0,1,1.68-2.3,3.76,3.76,0,0,1,2.55-.78,1.93,1.93,0,0,1,2,1.29,7.72,7.72,0,0,1,.5,2.79c0,1.14-.08,2.7-.25,4.66s-.4,4-.68,6.12-.59,4.15-.9,6.09-.61,3.47-.89,4.62c.29-.2.88-.62,1.79-1.29s1.88-1.37,2.91-2.08,2-1.37,2.9-1.94a4.92,4.92,0,0,1,1.79-.86c.77,0,1.14.29,1.14.86,0,.25-.42.78-1.28,1.62s-1.89,1.75-3.08,2.76-2.44,2-3.73,3-2.34,1.73-3.15,2.25c-.24.82-.56,1.8-1,3s-.9,2.41-1.47,3.73a33.61,33.61,0,0,1-2,3.94,19.63,19.63,0,0,1-2.69,3.54,13.25,13.25,0,0,1-3.33,2.55,8.45,8.45,0,0,1-4,1,6.15,6.15,0,0,1-5-1.89,6.41,6.41,0,0,1-1.62-4.26,6.94,6.94,0,0,1,1.68-4.44,20.33,20.33,0,0,1,4-3.77,31.75,31.75,0,0,1,5-2.9c1.74-.81,3.26-1.45,4.55-1.94Zm-7.24-2.65a3.15,3.15,0,0,0,2.08-.87,8.79,8.79,0,0,0,1.83-2.25,15,15,0,0,0,1.39-3.16,30.3,30.3,0,0,0,.93-3.61,3.49,3.49,0,0,1-1.57.42,2.62,2.62,0,0,1-1.29-.32,9.1,9.1,0,0,1-1.11-.71,8.87,8.87,0,0,0-1.12-.72,2.47,2.47,0,0,0-1.22-.32,1.57,1.57,0,0,0-1.25.68,6.17,6.17,0,0,0-.93,1.72,10.46,10.46,0,0,0-.57,2.33,18.81,18.81,0,0,0-.19,2.59,4.92,4.92,0,0,0,.86,3.26A2.8,2.8,0,0,0,170.13,396.19Zm5.45,12.53c-.76.38-1.55.78-2.36,1.22a21.84,21.84,0,0,0-2.19,1.32,8.53,8.53,0,0,0-1.58,1.4,2.17,2.17,0,0,0-.61,1.36,1.7,1.7,0,0,0,.43,1.14,1.32,1.32,0,0,0,1,.51,2.94,2.94,0,0,0,1.79-.65,6,6,0,0,0,1.5-1.69,15.78,15.78,0,0,0,1.14-2.25C175.05,410.28,175.34,409.48,175.58,408.72Z" transform="translate(-3.17 -2.05)"/><path class="cls-2" d="M213.68,379.78a4.3,4.3,0,0,1,2.8,1,7.55,7.55,0,0,1,2,2.69,17.37,17.37,0,0,1,1.22,3.79,25.65,25.65,0,0,1,.5,4.26c0,.77,0,1.65.11,2.65a16.29,16.29,0,0,0,.43,2.83,7.13,7.13,0,0,0,.89,2.21,1.77,1.77,0,0,0,1.57.9,2.89,2.89,0,0,0,1.69-.78,21.45,21.45,0,0,0,1.89-1.72c.62-.62,1.22-1.19,1.79-1.72a2.4,2.4,0,0,1,1.37-.79.45.45,0,0,1,.5.51,5.59,5.59,0,0,1-.86,2.25,15.72,15.72,0,0,1-2.29,3.08,16.68,16.68,0,0,1-3.26,2.69,6.92,6.92,0,0,1-3.69,1.14,6.72,6.72,0,0,1-3.58-.89,7.39,7.39,0,0,1-2.33-2.29,10.49,10.49,0,0,1-1.33-3.08,21.1,21.1,0,0,1-.57-3.19,5.47,5.47,0,0,0-1.14-3.36,2.75,2.75,0,0,0-1.94-.93,3.2,3.2,0,0,0-2.25,1,12.05,12.05,0,0,0-2,2.5A25.73,25.73,0,0,0,203.4,398c-.55,1.27-1.08,2.49-1.61,3.68a22.86,22.86,0,0,1-1.15,2.26,10.82,10.82,0,0,1-1.43,2,6.32,6.32,0,0,1-1.86,1.4,5.3,5.3,0,0,1-2.43.53,3.46,3.46,0,0,1-1.79-.43,2.68,2.68,0,0,1-1.08-1.18,5.78,5.78,0,0,1-.5-1.68,12.2,12.2,0,0,1-.15-1.94c0-.95.1-2.44.29-4.44s.46-4.16.79-6.48.7-4.61,1.11-6.88a54.47,54.47,0,0,1,1.26-5.63,7.29,7.29,0,0,1,2.5-3.9,6.47,6.47,0,0,1,4.09-1.39,3.23,3.23,0,0,1,2.86,1.25,4.77,4.77,0,0,1,.86,2.76c0,1.1,0,2.17-.1,3.22s-.16,2.13-.25,3.22a29.1,29.1,0,0,1,4.33-3.4A8.67,8.67,0,0,1,213.68,379.78Z" transform="translate(-3.17 -2.05)"/><path class="cls-2" d="M22.32,282.88q5.63,0,8.39,3.67c1.83,2.45,2.75,5.94,2.75,10.5a42.11,42.11,0,0,1-.89,8.71,56.25,56.25,0,0,1-2.29,8A61.19,61.19,0,0,1,27.11,321q-1.75,3.39-3.59,6.35a12.17,12.17,0,0,0,2.12,1.76,21.12,21.12,0,0,0,3.17,1.83,22.77,22.77,0,0,0,3.77,1.41,14.57,14.57,0,0,0,4,.57c2.26,0,3.9-.6,4.94-1.8a5.91,5.91,0,0,0,1.55-3.91,6.05,6.05,0,0,0-.32-2.15,6.37,6.37,0,0,0-.74-1.38c-.28-.37-.53-.67-.74-.92a1.12,1.12,0,0,1-.31-.77c0-.38.14-.56.42-.56a2.85,2.85,0,0,1,1.41.45,7.33,7.33,0,0,1,1.52,1.23,6.53,6.53,0,0,1,1.23,1.87,5.68,5.68,0,0,1,.5,2.36A9.62,9.62,0,0,1,43,334.87q-3.06,2.72-8.57,2.71a20.38,20.38,0,0,1-4.12-.49,43.76,43.76,0,0,1-4.44-1.2c-1.43-.48-2.74-.95-3.91-1.45s-2-.88-2.54-1.16a28.65,28.65,0,0,1-4.72,2.08,16.51,16.51,0,0,1-5.22.75,6.23,6.23,0,0,1-2.08-.39,6.56,6.56,0,0,1-2-1.2,6,6,0,0,1-1.55-2.11,7.63,7.63,0,0,1-.6-3.13,7.11,7.11,0,0,1,.57-2.82,7.64,7.64,0,0,1,1.54-2.36,7.19,7.19,0,0,1,2.43-1.62,8.13,8.13,0,0,1,3.14-.6,10.31,10.31,0,0,1,3.84.84,15.68,15.68,0,0,1,3.42,1.83,31.29,31.29,0,0,0,1.09-4.79,45.88,45.88,0,0,0,.49-5.21c.07-1.75.11-3.41.11-5v-4.08a12.39,12.39,0,0,0-.77-4.59,38,38,0,0,0-1.66-3.56c-.59-1.1-1.14-2.21-1.65-3.31a9,9,0,0,1-.78-3.91,5.64,5.64,0,0,1,.64-2.6,9.29,9.29,0,0,1,1.66-2.3,8.21,8.21,0,0,1,2.36-1.65A5.78,5.78,0,0,1,22.32,282.88Z" transform="translate(-3.17 -2.05)"/><path class="cls-2" d="M78.84,307.35a2.74,2.74,0,0,1,1.52.38,3.45,3.45,0,0,1,1,.95,4,4,0,0,1,.56,1.23,5,5,0,0,1,.17,1.31,11.23,11.23,0,0,1-.53,3.35c-.35,1.15-.75,2.4-1.2,3.73s-.84,2.76-1.2,4.27a21.66,21.66,0,0,0-.53,4.93,4.06,4.06,0,0,0,.56,2.19,2.15,2.15,0,0,0,2,.92,4.38,4.38,0,0,0,2-.49,10.6,10.6,0,0,0,1.87-1.2,21.63,21.63,0,0,0,1.65-1.48L88,326.1a5.45,5.45,0,0,1,.7-.6,1.26,1.26,0,0,1,.71-.24.69.69,0,0,1,.78.77,3.13,3.13,0,0,1-.78,1.42c-.66.8-1.37,1.64-2.15,2.53a20.06,20.06,0,0,1-2.57,2.47,13.51,13.51,0,0,1-3.18,1.87,9.94,9.94,0,0,1-3.88.73,6.28,6.28,0,0,1-2.14-.38,5.6,5.6,0,0,1-2-1.24,6.46,6.46,0,0,1-1.44-2.11,7.35,7.35,0,0,1-.56-3,27.82,27.82,0,0,1,.17-2.9,16.17,16.17,0,0,1,.46-2.53q-1.22,2-2.86,4.23a31.74,31.74,0,0,1-3.67,4.19,21.13,21.13,0,0,1-4.29,3.24,9.38,9.38,0,0,1-4.69,1.31,7.2,7.2,0,0,1-3.56-.88,9,9,0,0,1-2.68-2.26,10.87,10.87,0,0,1-2.29-6.52,22.56,22.56,0,0,1,1.55-8.43,24,24,0,0,1,4-6.8,19.43,19.43,0,0,1,5.54-4.55,12.79,12.79,0,0,1,6.16-1.66A9.71,9.71,0,0,1,71,306.21a9.88,9.88,0,0,1,3.31,4,4.09,4.09,0,0,1,2-2.36A6.54,6.54,0,0,1,78.84,307.35ZM70.6,318.62a11.14,11.14,0,0,0-2.5-2.43,4.75,4.75,0,0,0-2.71-.88,5.18,5.18,0,0,0-2.85.88A10.66,10.66,0,0,0,60,318.45a11.19,11.19,0,0,0-1.8,3,8.43,8.43,0,0,0-.67,3.2,3.07,3.07,0,0,0,.78,2,3,3,0,0,0,2.4.92,5.31,5.31,0,0,0,2.74-.84,13.9,13.9,0,0,0,2.75-2.19,23.23,23.23,0,0,0,2.47-2.92A27.36,27.36,0,0,0,70.6,318.62Z" transform="translate(-3.17 -2.05)"/><path class="cls-2" d="M86.88,314a19.3,19.3,0,0,1,.74-5.37,16.27,16.27,0,0,1,1.94-4.37,10.39,10.39,0,0,1,2.78-2.92,5.71,5.71,0,0,1,3.28-1.1,5.49,5.49,0,0,1,3.28.88,3,3,0,0,1,1.24,2.65,7.35,7.35,0,0,1-.28,2.14c-.18.64-.39,1.3-.64,2s-.44,1.4-.63,2.15a10.15,10.15,0,0,0-.29,2.61,2.27,2.27,0,0,0,.35,1.37,1.72,1.72,0,0,0,1.42.46,4.07,4.07,0,0,0,1.82-.53c.71-.35,1.45-.75,2.22-1.16s1.54-.82,2.29-1.17a5.06,5.06,0,0,1,2-.53,2.54,2.54,0,0,1,2.76,2.82,7.2,7.2,0,0,1-1.06,3c-.7,1.31-1.48,2.71-2.32,4.19s-1.62,3-2.32,4.44a9.08,9.08,0,0,0-1.06,3.77,2.6,2.6,0,0,0,.5,1.59,2.1,2.1,0,0,0,1.82.67,6,6,0,0,0,2-.43A11.85,11.85,0,0,0,111,330a16.48,16.48,0,0,0,2.19-1.62c.7-.61,1.33-1.21,1.91-1.82.8-.89,1.29-1.34,1.48-1.34.51,0,.77.18.77.56a2.34,2.34,0,0,1-.43,1.23,10.29,10.29,0,0,1-.77,1.09c-.71.85-1.54,1.76-2.51,2.71a23.12,23.12,0,0,1-3.13,2.62,18,18,0,0,1-3.67,1.93,11.05,11.05,0,0,1-4.09.78,6,6,0,0,1-4.27-1.7c-1.2-1.13-1.8-2.86-1.8-5.21A12.25,12.25,0,0,1,97.91,324a38.87,38.87,0,0,1,3.28-5.56,22.52,22.52,0,0,1-4.69,2.36,12.46,12.46,0,0,1-3.91.67,4.86,4.86,0,0,1-4.16-2.19A8.78,8.78,0,0,1,86.88,314Z" transform="translate(-3.17 -2.05)"/><path class="cls-2" d="M146.09,307.35a2.74,2.74,0,0,1,1.52.38,3.45,3.45,0,0,1,1,.95,4,4,0,0,1,.56,1.23,5,5,0,0,1,.17,1.31,11.23,11.23,0,0,1-.53,3.35c-.35,1.15-.75,2.4-1.2,3.73s-.84,2.76-1.2,4.27a21.66,21.66,0,0,0-.53,4.93,4.06,4.06,0,0,0,.56,2.19,2.15,2.15,0,0,0,2,.92,4.38,4.38,0,0,0,2-.49,10.6,10.6,0,0,0,1.87-1.2,21.63,21.63,0,0,0,1.65-1.48l1.34-1.34a5.45,5.45,0,0,1,.7-.6,1.26,1.26,0,0,1,.71-.24.68.68,0,0,1,.77.77,3.08,3.08,0,0,1-.77,1.42c-.66.8-1.37,1.64-2.15,2.53a20.06,20.06,0,0,1-2.57,2.47,13.51,13.51,0,0,1-3.18,1.87,9.94,9.94,0,0,1-3.88.73,6.38,6.38,0,0,1-2.15-.38,5.65,5.65,0,0,1-2-1.24,6.46,6.46,0,0,1-1.44-2.11,7.35,7.35,0,0,1-.56-3,27.82,27.82,0,0,1,.17-2.9,16.17,16.17,0,0,1,.46-2.53q-1.22,2-2.86,4.23a31.74,31.74,0,0,1-3.67,4.19,21.13,21.13,0,0,1-4.29,3.24,9.38,9.38,0,0,1-4.69,1.31,7.2,7.2,0,0,1-3.56-.88,9,9,0,0,1-2.68-2.26,10.06,10.06,0,0,1-1.69-3.11,10.35,10.35,0,0,1-.6-3.41,22.56,22.56,0,0,1,1.55-8.43,24,24,0,0,1,4-6.8,19.43,19.43,0,0,1,5.54-4.55,12.79,12.79,0,0,1,6.16-1.66,9.71,9.71,0,0,1,5.64,1.48,9.88,9.88,0,0,1,3.31,4,4.09,4.09,0,0,1,2-2.36A6.54,6.54,0,0,1,146.09,307.35Zm-8.24,11.27a11.14,11.14,0,0,0-2.5-2.43,4.75,4.75,0,0,0-2.71-.88,5.16,5.16,0,0,0-2.85.88,10.66,10.66,0,0,0-2.51,2.26,11.19,11.19,0,0,0-1.8,3,8.43,8.43,0,0,0-.67,3.2,3.07,3.07,0,0,0,.78,2,3,3,0,0,0,2.4.92,5.31,5.31,0,0,0,2.74-.84,13.9,13.9,0,0,0,2.75-2.19,23.23,23.23,0,0,0,2.47-2.92A27.36,27.36,0,0,0,137.85,318.62Z" transform="translate(-3.17 -2.05)"/><path class="cls-2" d="M185.71,309.17a24.41,24.41,0,0,1-1.24,8,39,39,0,0,1-3.2,7,6.41,6.41,0,0,0,4.94,2.05,5.55,5.55,0,0,0,2.36-.46,3.81,3.81,0,0,1,1.44-.45c.94,0,1.41.26,1.41.77a1.46,1.46,0,0,1-.49.88,7.15,7.15,0,0,1-1.31,1.06,8.17,8.17,0,0,1-1.83.88,6.4,6.4,0,0,1-2.08.35,10.15,10.15,0,0,1-6.35-2.12c-.42.65-.86,1.29-1.3,1.9s-.91,1.25-1.38,1.91a15.38,15.38,0,0,1-4.19,4.16,9.67,9.67,0,0,1-5,1.2,5,5,0,0,1-3.88-1.52,10.66,10.66,0,0,1-2.22-3.88,28.58,28.58,0,0,1-1.2-5.15c-.26-1.86-.54-3.64-.84-5.36a30.68,30.68,0,0,0-1.16-4.59A4.44,4.44,0,0,0,156,313.1a1.41,1.41,0,0,0-.64-.14,2.08,2.08,0,0,1-.66-.11,1.25,1.25,0,0,1-.56-.38,1.49,1.49,0,0,1-.25-1,5.87,5.87,0,0,1,.46-2.08,6.76,6.76,0,0,1,1.33-2.12,7.44,7.44,0,0,1,2.3-1.62,7.73,7.73,0,0,1,3.31-.67,5.73,5.73,0,0,1,4.29,1.66,11.85,11.85,0,0,1,2.58,4.19,23.84,23.84,0,0,1,1.33,5.43q.41,2.88.67,5.43c.19,1.69.39,3.08.6,4.19s.55,1.65,1,1.65a2.48,2.48,0,0,0,1.9-1.2,15.24,15.24,0,0,0,1.55-2.4c.1-.18.19-.37.28-.56a5.72,5.72,0,0,1,.35-.56,20,20,0,0,1-2-5.47,30.2,30.2,0,0,1-.64-6.38,14.82,14.82,0,0,1,1.83-7.79,5.53,5.53,0,0,1,4.87-3,3.65,3.65,0,0,1,2.25.82,7.27,7.27,0,0,1,1.83,2.08,11.49,11.49,0,0,1,1.23,2.89A11.15,11.15,0,0,1,185.71,309.17ZM178,312.84c0,.94,0,1.86.11,2.75a18.65,18.65,0,0,0,.38,2.61,21,21,0,0,0,1.2-3.59,18.21,18.21,0,0,0,.5-4.44,6.81,6.81,0,0,0-.18-1.27c-.11-.56-.36-.85-.73-.85a.84.84,0,0,0-.71.53,3.79,3.79,0,0,0-.39,1.27c-.06.5-.11,1-.14,1.55S178,312.42,178,312.84Z" transform="translate(-3.17 -2.05)"/><path class="cls-2" d="M197.63,325a6,6,0,0,0,2,4.79,8.57,8.57,0,0,0,5.81,1.76,12,12,0,0,0,4.87-1,21.91,21.91,0,0,0,4-2.19,34.05,34.05,0,0,0,2.79-2.18c.72-.66,1.24-1,1.52-1,.61,0,.92.23.92.71a5.65,5.65,0,0,1-1.27,2.36,19.58,19.58,0,0,1-3.46,3.52,24.27,24.27,0,0,1-5.21,3.2,15.19,15.19,0,0,1-6.49,1.42,16.15,16.15,0,0,1-6.13-1.06,12.24,12.24,0,0,1-4.34-2.85,11.53,11.53,0,0,1-2.57-4.19,15.24,15.24,0,0,1-.84-5.07,20.11,20.11,0,0,1,1.05-6.38,18.76,18.76,0,0,1,3.07-5.78,16.41,16.41,0,0,1,4.79-4.19,12.33,12.33,0,0,1,6.31-1.62,7.17,7.17,0,0,1,3.49.82,7.62,7.62,0,0,1,2.51,2.12,9.14,9.14,0,0,1,1.48,3,11.34,11.34,0,0,1,.49,3.28,16.1,16.1,0,0,1-2.89,9.31,10.82,10.82,0,0,1-2.79,2.78,5.16,5.16,0,0,1-2.85,1,9.39,9.39,0,0,1-4-.77A5.08,5.08,0,0,1,197.63,325Zm4.93-10.65a2.52,2.52,0,0,0-1.69.75,7.71,7.71,0,0,0-1.55,1.93,11.73,11.73,0,0,0-1.13,2.68,10.72,10.72,0,0,0-.43,3,7.11,7.11,0,0,0,2.15-1,10.58,10.58,0,0,0,2-1.61,7.9,7.9,0,0,0,1.42-2,5.11,5.11,0,0,0,.53-2.15C203.83,314.93,203.4,314.39,202.56,314.39Z" transform="translate(-3.17 -2.05)"/><path class="cls-2" d="M230.26,283.16c1.79,0,3,.5,3.59,1.52a9.49,9.49,0,0,1,.92,4.76,22.49,22.49,0,0,1-.56,4.19q-.57,2.72-1.45,6.1t-1.86,7.19q-1,3.81-1.87,7.47c-.59,2.45-1.08,4.76-1.44,6.94a33.37,33.37,0,0,0-.56,5.6,7.3,7.3,0,0,0,.45,2.86,1.9,1.9,0,0,0,1.94,1,7.27,7.27,0,0,0,3.49-.85,17.25,17.25,0,0,0,2.82-1.87,20.21,20.21,0,0,0,2-1.86c.51-.56.89-.85,1.13-.85a.44.44,0,0,1,.49.5,6.08,6.08,0,0,1-1,2.47,21.71,21.71,0,0,1-2.75,3.63,18.7,18.7,0,0,1-4.08,3.28,9.8,9.8,0,0,1-5,1.41,8.09,8.09,0,0,1-6.48-2.92,11.82,11.82,0,0,1-2.47-7.86q0-3.74.18-8c.11-2.84.32-5.7.6-8.6s.64-5.73,1.05-8.52.94-5.44,1.55-7.94a14.39,14.39,0,0,1,1.48-3.7,15.75,15.75,0,0,1,2.26-3.06,10.42,10.42,0,0,1,2.74-2.12A6.16,6.16,0,0,1,230.26,283.16Z" transform="translate(-3.17 -2.05)"/><circle class="cls-4" cx="93.35" cy="181.31" r="2.42"/><path class="cls-5" d="M150.23,146.1C156-37.79,231.85,25,178.3,154.81h0l-1.94,3.87" transform="translate(-3.17 -2.05)"/><path class="cls-6" d="M123.14,227.39c5.36-.67,9.24-7.07,11.61-11.61,3.61-8.13-4.19-11.65-11.61-10.78" transform="translate(-3.17 -2.05)"/><path class="cls-1" d="M171.52,208a43.29,43.29,0,0,1,11.62-5.8,59.38,59.38,0,0,1,8.71-1.94,81.72,81.72,0,0,1,8.71-1,66.73,66.73,0,0,1,7.74,0,65.54,65.54,0,0,1,7.74,1,67.7,67.7,0,0,1,7.74,1.94" transform="translate(-3.17 -2.05)"/><path class="cls-1" d="M170.07,216.26c3.88-.16,7.18-.11,9.68,0a83.58,83.58,0,0,1,10.65,1,88.22,88.22,0,0,1,8.71,1.93,63.33,63.33,0,0,1,9.67,2.91,58.57,58.57,0,0,1,8.71,4.84c2.43,1.51,4.4,2.86,5.81,3.87" transform="translate(-3.17 -2.05)"/><path class="cls-1" d="M169.11,225a52.14,52.14,0,0,1,17.42,5.81,49.91,49.91,0,0,1,11.61,8.71,48.2,48.2,0,0,1,6.77,8.71" transform="translate(-3.17 -2.05)"/><path class="cls-2" d="M125.56,244.33c.84-.38,1.54.84,3.87,1.93,3.69,1.74,5.7.43,6.77,1.94s.18,3.6-1,6.77c-.88,2.45-1.43,2.6-1.93,4.84-.35,1.56-.27,2.34-1,2.9-.93.75-2.35.39-3.87,0-1.77-.44-3.15-.79-3.87-1.93s-.2-1.79,0-4.84c.15-2.35-.1-2.06,0-5.81C124.72,244.94,125.22,244.48,125.56,244.33Z" transform="translate(-3.17 -2.05)"/><path class="cls-2" d="M147.33,163.52c-15.51-10.43-22.21,28.18-4.84,35.8,3.07,2.54,9-.67,10.65-2.9C161.45,187.05,158.45,169.45,147.33,163.52Z" transform="translate(-3.17 -2.05)"/><path class="cls-4" d="M147.33,178c5-2.65,2.82-9.32-2.9-9.67C136.85,168.66,141.56,182.53,147.33,178Z" transform="translate(-3.17 -2.05)"/><circle class="cls-4" cx="146.58" cy="181.31" r="2.42"/><path class="cls-1" d="M76.2,216.26c-3.88-.16-7.18-.11-9.68,0a83.6,83.6,0,0,0-10.64,1,87.59,87.59,0,0,0-8.71,1.93,63.9,63.9,0,0,0-9.68,2.91,58.57,58.57,0,0,0-8.71,4.84c-2.43,1.51-4.39,2.86-5.81,3.87" transform="translate(-3.17 -2.05)"/><path class="cls-1" d="M74.75,208a43.41,43.41,0,0,0-11.61-5.8,59.66,59.66,0,0,0-8.71-1.94,81.72,81.72,0,0,0-8.71-1,66.91,66.91,0,0,0-7.75,0,65.79,65.79,0,0,0-7.74,1,68.22,68.22,0,0,0-7.74,1.94" transform="translate(-3.17 -2.05)"/><path class="cls-6" d="M123.14,227.39c-5.36-.67-9.25-7.07-11.62-11.61-3.61-8.13,4.19-11.65,11.62-10.78" transform="translate(-3.17 -2.05)"/><path class="cls-7" d="M62.17,166.42C42.81,136,36.77,105.34,36,67.71c1.21-15.82.84-33.72,9.68-50.32,3.19-4,9.53-13.42,16.45-11.62,14.27,1.09,22.9,21.44,29,31.94,12.19,28.73,19.45,77.41,12.58,109.36" transform="translate(-3.17 -2.05)"/><path class="cls-5" d="M96,146.1C90.23-37.79,14.42,25,68,154.81h0l1.94,3.87" transform="translate(-3.17 -2.05)"/></g></svg>